<?xml version="1.0" standalone="no"?>
<!DOCTYPE svg PUBLIC "-//W3C//DTD SVG 20010904//EN"
 "http://www.w3.org/TR/2001/REC-SVG-20010904/DTD/svg10.dtd">
<svg version="1.0" xmlns="http://www.w3.org/2000/svg"
 width="384.000000pt" height="384.000000pt" viewBox="0 0 384.000000 384.000000"
 preserveAspectRatio="xMidYMid meet">
<metadata>
Created by potrace 1.16, written by Peter Selinger 2001-2019
</metadata>
<g transform="translate(0.000000,384.000000) scale(0.100000,-0.100000)"
fill="#000000" stroke="none">
<path d="M0 1920 l0 -1920 1920 0 1920 0 0 1920 0 1920 -1920 0 -1920 0 0
-1920z m1535 309 c88 -17 162 -32 163 -34 2 -2 -16 -14 -40 -26 -61 -32 -166
-32 -225 -1 -48 25 -113 79 -113 94 0 5 12 7 28 4 15 -3 99 -20 187 -37z m856
7 c-43 -45 -118 -85 -173 -92 -59 -8 -196 31 -177 50 6 6 333 74 363 75 17 1
15 -4 -13 -33z"/>
</g>
</svg>
